<svg version="1.1" id="Capa_1" xmlns="http://www.w3.org/2000/svg" x="0" y="0" viewBox="0 0 512 512" xml:space="preserve"><circle cx="53.3" cy="53.3" r="10.7"/><circle cx="96" cy="53.3" r="10.7"/><circle cx="138.7" cy="53.3" r="10.7"/><path d="M188.2 301.1L134 256l54.2-45.1c4.5-3.8 5.1-10.5 1.4-15-3.8-4.5-10.5-5.1-15-1.4l-64 53.3c-2.4 2-3.8 5-3.8 8.2s1.4 6.2 3.8 8.2l64 53.3c2 1.7 4.4 2.5 6.8 2.5 3.1 0 6.1-1.3 8.2-3.8 3.7-4.6 3.1-11.3-1.4-15.1zm91.6 15.1c2.1 2.5 5.1 3.8 8.2 3.8 2.4 0 4.8-.8 6.8-2.5l64-53.3c2.4-2 3.8-5 3.8-8.2s-1.4-6.2-3.8-8.2l-64-53.3c-4.5-3.8-11.2-3.1-15 1.4-3.8 4.5-3.2 11.2 1.4 15l54.2 45.1-54.2 45.1c-4.6 3.8-5.2 10.5-1.4 15.1zm-8.9-144.7c-5.4-2.3-11.7.2-14 5.6l-64 149.3c-2.3 5.4.2 11.7 5.6 14 1.4.6 2.8.9 4.2.9 4.1 0 8.1-2.4 9.8-6.5l64-149.3c2.3-5.4-.2-11.6-5.6-14z"/><path d="M503.9 363l-20.4-5.1 10.8-18c2.5-4.2 1.9-9.6-1.6-13l-23.4-23.4V42.7c0-23.5-19.1-42.7-42.7-42.7h-384C19.1 0 0 19.1 0 42.7v384c0 23.5 19.1 42.7 42.7 42.7h260.7l23.4 23.4c3.4 3.5 8.8 4.1 13 1.6l18.1-10.8L363 504c1.2 4.8 5.4 8.1 10.3 8.1H416c4.9 0 9.2-3.3 10.3-8.1l5.1-20.4 18.1 10.8c4.2 2.5 9.6 1.9 13-1.6l30.2-30.2c3.5-3.5 4.1-8.8 1.6-13l-10.8-18 20.4-5.1c4.7-1.2 8.1-5.5 8.1-10.4v-42.7c0-5-3.3-9.2-8.1-10.4zM21.3 42.7c0-11.8 9.6-21.3 21.3-21.3h384c11.8 0 21.3 9.6 21.3 21.3v42.7H21.3V42.7zM295.9 448H42.7c-11.8 0-21.3-9.6-21.3-21.3v-320H448V296l-16.5 9.9-5.1-20.4c-1.2-4.8-5.4-8.1-10.3-8.1h-42.7c-4.9 0-9.2 3.3-10.3 8.1l-5.1 20.4-18.2-10.9c-4.2-2.5-9.6-1.9-13 1.6l-30.2 30.2c-3.5 3.5-4.1 8.8-1.6 13l10.8 18-20.4 5.1c-4.7 1.2-8.1 5.5-8.1 10.4V416c0 4.9 3.3 9.2 8.1 10.4l20.4 5.1-9.9 16.5zm194.8-40.3l-18.3 4.6c-3.5.9-6.3 3.4-7.5 6.8-.9 2.7-2 5.4-3.2 8-1.6 3.2-1.4 7.1.4 10.2l9.7 16.1-18.4 18.4-16.1-9.7c-3.1-1.9-6.9-2-10.2-.5-2.6 1.3-5.3 2.3-8 3.3-3.4 1.2-5.9 4-6.8 7.5l-4.6 18.3h-26l-4.6-18.3c-.9-3.5-3.4-6.3-6.8-7.5-2.7-1-5.4-2-8-3.3-3.2-1.6-7.1-1.4-10.2.5l-16.1 9.7-18.4-18.4 9.7-16.1c1.9-3.1 2-6.9.4-10.2-1.3-2.6-2.3-5.2-3.2-8-1.2-3.4-4-6-7.5-6.8l-18.3-4.6v-26l18.3-4.6c3.5-.9 6.3-3.4 7.5-6.8.9-2.7 2-5.4 3.2-8 1.6-3.2 1.4-7.1-.4-10.2l-9.7-16.1 18.4-18.4 16.1 9.7c3.1 1.9 6.9 2 10.2.5 2.6-1.3 5.3-2.3 8-3.3 3.4-1.2 5.9-4 6.8-7.5l4.6-18.3h26l4.6 18.3c.9 3.5 3.4 6.3 6.8 7.5 2.7 1 5.4 2 8 3.3 3.2 1.5 7.1 1.4 10.2-.5l16.1-9.7 18.4 18.4-9.7 16.1c-1.9 3.1-2 6.9-.4 10.2 1.3 2.6 2.3 5.2 3.2 8 1.2 3.4 4 6 7.5 6.8l18.3 4.6v26z"/><path d="M394.7 341.3c-29.4 0-53.3 23.9-53.3 53.3s23.9 53.3 53.3 53.3S448 424 448 394.6s-23.9-53.3-53.3-53.3zm0 85.4c-17.6 0-32-14.4-32-32s14.4-32 32-32 32 14.4 32 32-14.4 32-32 32z"/></svg>