<svg version="1.1" id="Layer_1" xmlns="http://www.w3.org/2000/svg" x="0" y="0" viewBox="0 0 512 512" xml:space="preserve"><path d="M463.7 20.2H48.3C21.7 20.2 0 41.9 0 68.6v275.8c0 26.7 21.7 48.3 48.3 48.3h137c-1.2 26.7-6 52.5-14.2 77.1h-33.5c-6.1 0-11 4.9-11 11s4.9 11 11 11h236.7c6.1 0 11-4.9 11-11s-4.9-11-11-11h-33.5c-8.2-24.6-13-50.4-14.2-77.1h137c26.7 0 48.3-21.7 48.3-48.3V68.6c.1-26.7-21.6-48.4-48.2-48.4zM22 68.6c0-14.5 11.8-26.3 26.3-26.3h415.3c14.5 0 26.3 11.8 26.3 26.3V320H22V68.6zm172.2 401.2c7.6-24.7 12-50.5 13.1-77.1h97.2c1.1 26.5 5.5 52.4 13.1 77.1H194.2zM490 344.3c0 14.5-11.8 26.3-26.3 26.3H48.3c-14.5 0-26.3-11.8-26.3-26.3V342h468v2.3z"/><path d="M402.8 276H165.7c-6.1 0-11 4.9-11 11s4.9 11 11 11h237.1c6.1 0 11-4.9 11-11s-4.9-11-11-11zM111 276h-1.8c-6.1 0-11 4.9-11 11s4.9 11 11 11h1.8c6.1 0 11-4.9 11-11s-5-11-11-11zm210-164.7l64.9 55.5-64.9 55.5c-4.6 4-5.2 10.9-1.2 15.5 2.2 2.5 5.3 3.9 8.4 3.9 2.5 0 5.1-.9 7.1-2.6l74.7-63.9c2.4-2.1 3.9-5.1 3.9-8.4s-1.4-6.3-3.9-8.4l-74.7-63.9c-4.6-4-11.6-3.4-15.5 1.2-4 4.7-3.5 11.7 1.2 15.6zm-219 63.9l74.7 63.9c2.1 1.8 4.6 2.6 7.1 2.6 3.1 0 6.2-1.3 8.4-3.9 4-4.6 3.4-11.6-1.2-15.5l-64.9-55.5 64.9-55.5c4.6-4 5.2-10.9 1.2-15.5s-10.9-5.2-15.5-1.2L102 158.4c-2.4 2.1-3.9 5.1-3.9 8.4s1.5 6.3 3.9 8.4zm122.5 88.3c1.1.4 2.3.5 3.4.5 4.6 0 9-3 10.5-7.6L294.5 84c1.9-5.8-1.3-12-7.1-13.9-5.8-1.9-12 1.3-13.9 7.1l-56.2 172.5c-1.7 5.7 1.4 12 7.2 13.8z"/></svg>