<svg version="1.1" id="Capa_1" xmlns="http://www.w3.org/2000/svg" x="0" y="0" viewBox="0 0 512 512" xml:space="preserve"><path d="M458.7 0H53.3C23.9 0 0 23.9 0 53.3v405.3C0 488.1 23.9 512 53.3 512h405.3c29.4 0 53.3-23.9 53.3-53.3V53.3C512 23.9 488.1 0 458.7 0zm32 458.7c0 17.7-14.3 32-32 32H53.3c-17.7 0-32-14.3-32-32V53.3c0-17.7 14.3-32 32-32h405.3c17.7 0 32 14.3 32 32l.1 405.4z"/><path d="M42.7 85.3h160v21.3h-160zm10.6-42.6h21.3V64H53.3zm42.7 0h21.3V64H96zm341.3 0h21.3V64h-21.3zm10.7 128H64c-11.8 0-21.3 9.6-21.3 21.3v234.7c0 11.8 9.6 21.3 21.3 21.3h384c11.8 0 21.3-9.6 21.3-21.3V192c0-11.8-9.5-21.3-21.3-21.3zm0 256H64V192h384v234.7z"/><path d="M263.5 88.5c-4.2-4.2-10.9-4.2-15.1 0l-85.3 85.3 15.1 15.1 77.8-77.8 77.5 77.5 15.1-15.1-85.1-85zm45.8-3.2h149.3v21.3H309.3zM224 352v-21.3h-21.3V352c.1.6.1 1.3 0 1.9-.5 5.4-5.3 9.3-10.7 8.8h-21.3c-.6.1-1.3.1-1.9 0-5.4-.5-9.3-5.3-8.8-10.7v-85.3c-.1-.6-.1-1.3 0-1.9.5-5.4 5.3-9.3 10.7-8.8H192c.6-.1 1.3-.1 1.9 0 5.4.5 9.3 5.3 8.8 10.7V288H224v-23.1c-.5-17.2-14.8-30.7-32-30.2h-23.1c-17.2.5-30.7 14.8-30.2 32v87.1c.5 17.2 14.8 30.7 32 30.2h23.1c17.2-.5 30.7-14.8 30.2-32zm42.7-117.3H288V384h-21.3zm53.3 0h21.3V384H320z"/><path d="M245.3 266.7h117.3V288H245.3zm0 64h117.3V352H245.3z"/></svg>