<svg version="1.1" id="Layer_1" xmlns="http://www.w3.org/2000/svg" x="0" y="0" viewBox="0 0 480 480" xml:space="preserve"><path d="M456 232V56c0-22.1-17.9-40-40-40H64c-22.1 0-40 17.9-40 40v120c-13.2 0-24 10.8-24 24v240c0 13.2 10.8 24 24 24h176c13.2 0 24-10.8 24-24h67c7.5 0 14.5-3.4 19.1-9.4s6.1-13.6 4.1-20.9L298.5 352H344v88c0 13.2 10.8 24 24 24h88c13.2 0 24-10.8 24-24V256c0-13.2-10.8-24-24-24zM208 440c0 4.4-3.6 8-8 8H24c-4.4 0-8-3.6-8-8v-16h192v16zm0-32H16V232h192v176zm0-192H16v-16c0-4.4 3.6-8 8-8h176c4.4 0 8 3.6 8 8v16zm90.8 197.9c.7 2.4.2 5-1.4 7s-3.8 3.1-6.4 3.1h-67v-16h73.2l1.6 5.9zM224 392v-40h57.9l10.9 40H224zm120-56H224v-48h120v48zm0-80v16H224v-72c0-13.2-10.8-24-24-24H40V56c0-13.2 10.8-24 24-24h352c13.2 0 24 10.8 24 24v176h-72c-13.2 0-24 10.8-24 24zm120 184c0 4.4-3.6 8-8 8h-88c-4.4 0-8-3.6-8-8v-16h104v16zm0-32H360V288h104v120zm0-136H360v-16c0-4.4 3.6-8 8-8h88c4.4 0 8 3.6 8 8v16z"/><path transform="rotate(-45.001 63.994 335.994)" d="M41.4 328h45.3v16H41.4z"/><path transform="rotate(-45.001 127.991 327.996)" d="M60.1 320h135.8v16H60.1z"/><path transform="rotate(-45.001 119.989 280.007)" d="M86.1 272H154v16H86.1z"/><path transform="rotate(-45.001 403.978 332.014)" d="M375.7 324h56.6v16h-56.6z"/><path transform="rotate(-45.001 419.974 364.049)" d="M391.7 356h56.6v16h-56.6z"/><path transform="rotate(-45.001 239.989 136.006)" d="M206 128h67.9v16H206z"/><path transform="rotate(-45.001 311.994 120.007)" d="M278.1 112H346v16h-67.9z"/><path transform="rotate(-45.001 255.988 176.014)" d="M233.4 168h45.3v16h-45.3z"/><path transform="rotate(-45.001 295.984 80.067)" d="M273.3 72.1h45.4v16h-45.4z"/><path d="M56 48h16v16H56zm32 0h16v16H88zm32 0h16v16h-16z"/></svg>