<?xml version="1.0" encoding="utf-8"?>
<!-- Generator: Adobe Illustrator 24.2.0, SVG Export Plug-In . SVG Version: 6.00 Build 0)  -->
<svg version="1.1" id="Capa_1" xmlns="http://www.w3.org/2000/svg" xmlns:xlink="http://www.w3.org/1999/xlink" x="0px" y="0px"
	 viewBox="0 0 512 512" style="enable-background:new 0 0 512 512;" xml:space="preserve">
<g>
	<g>
		<path d="M458.7,0H53.3C23.9,0,0,23.9,0,53.3v405.3C0,488.1,23.9,512,53.3,512h405.3c29.4,0,53.3-23.9,53.3-53.3V53.3
			C512,23.9,488.1,0,458.7,0z M490.7,458.7c0,17.7-14.3,32-32,32H53.3c-17.7,0-32-14.3-32-32V53.3c0-17.7,14.3-32,32-32h405.3
			c17.7,0,32,14.3,32,32L490.7,458.7L490.7,458.7z"/>
	</g>
</g>
<g>
	<g>
		<rect x="42.7" y="85.3" width="160" height="21.3"/>
	</g>
</g>
<g>
	<g>
		<rect x="53.3" y="42.7" width="21.3" height="21.3"/>
	</g>
</g>
<g>
	<g>
		<rect x="96" y="42.7" width="21.3" height="21.3"/>
	</g>
</g>
<g>
	<g>
		<rect x="437.3" y="42.7" width="21.3" height="21.3"/>
	</g>
</g>
<g>
	<g>
		<path d="M448,170.7H64c-11.8,0-21.3,9.6-21.3,21.3v234.7c0,11.8,9.6,21.3,21.3,21.3h384c11.8,0,21.3-9.6,21.3-21.3V192
			C469.3,180.2,459.8,170.7,448,170.7z M448,426.7H64V192h384V426.7z"/>
	</g>
</g>
<g>
	<g>
		<path d="M263.5,88.5c-4.2-4.2-10.9-4.2-15.1,0l-85.3,85.3l15.1,15.1l77.8-77.8l77.5,77.5l15.1-15.1L263.5,88.5z"/>
	</g>
</g>
<g>
	<g>
		<rect x="309.3" y="85.3" width="149.3" height="21.3"/>
	</g>
</g>
<g>
	<g>
		<path d="M224,352v-21.3h-21.3V352c0.1,0.6,0.1,1.3,0,1.9c-0.5,5.4-5.3,9.3-10.7,8.8h-21.3c-0.6,0.1-1.3,0.1-1.9,0
			c-5.4-0.5-9.3-5.3-8.8-10.7v-85.3c-0.1-0.6-0.1-1.3,0-1.9c0.5-5.4,5.3-9.3,10.7-8.8H192c0.6-0.1,1.3-0.1,1.9,0
			c5.4,0.5,9.3,5.3,8.8,10.7V288H224v-21.3c0-0.6,0-1.2,0-1.8c-0.5-17.2-14.8-30.7-32-30.2h-21.3c-0.6,0-1.2,0-1.8,0
			c-17.2,0.5-30.7,14.8-30.2,32V352c0,0.6,0,1.2,0,1.8c0.5,17.2,14.8,30.7,32,30.2H192c0.6,0,1.2,0,1.8,0
			C211,383.5,224.5,369.2,224,352z"/>
	</g>
</g>
<g>
	<g>
		<rect x="266.7" y="234.7" width="21.3" height="149.3"/>
	</g>
</g>
<g>
	<g>
		<rect x="320" y="234.7" width="21.3" height="149.3"/>
	</g>
</g>
<g>
	<g>
		<rect x="245.3" y="266.7" width="117.3" height="21.3"/>
	</g>
</g>
<g>
	<g>
		<rect x="245.3" y="330.7" width="117.3" height="21.3"/>
	</g>
</g>
</svg>
